HIERARCHY
ROOT Hips
{
	OFFSET	0.00	0.00	0.00
	CHANNELS 6 Xposition Yposition Zposition Zrotation Xrotation Yrotation
	JOINT LeftUpLeg
	{
		OFFSET	 0.126116	-0.065224	 0.014019
		CHANNELS 3 Zrotation Xrotation Yrotation
		JOINT LeftLeg
		{
			OFFSET	 0.000000	 0.569914	 0.000000
			CHANNELS 3 Zrotation Xrotation Yrotation
			JOINT LeftFoot
			{
				OFFSET	 0.000000	 0.544423	 0.000000
				CHANNELS 3 Zrotation Xrotation Yrotation
				JOINT LeftToeBase
				{
					OFFSET	 0.000000	 0.207117	 0.000000
					CHANNELS 3 Zrotation Xrotation Yrotation
					End Site
					{
						OFFSET	 0.000000	 0.207117	 0.000000
					}
				}
			}
		}
	}
	JOINT RightUpLeg
	{
		OFFSET	-0.124023	-0.065224	 0.008373
		CHANNELS 3 Zrotation Xrotation Yrotation
		JOINT RightLeg
		{
			OFFSET	 0.000000	 0.570047	 0.000000
			CHANNELS 3 Zrotation Xrotation Yrotation
			JOINT RightFoot
			{
				OFFSET	 0.000000	 0.544354	 0.000000
				CHANNELS 3 Zrotation Xrotation Yrotation
				JOINT RightToeBase
				{
					OFFSET	 0.000000	 0.207540	 0.000000
					CHANNELS 3 Zrotation Xrotation Yrotation
					End Site
					{
						OFFSET	 0.000000	 0.207540	 0.000000
					}
				}
			}
		}
	}
	JOINT Spine
	{
		OFFSET	 0.000184	 0.117403	 0.007763
		CHANNELS 3 Zrotation Xrotation Yrotation
		JOINT Spine1
		{
			OFFSET	 0.000000	 0.137269	 0.000000
			CHANNELS 3 Zrotation Xrotation Yrotation
			JOINT Spine2
			{
				OFFSET	 0.000000	 0.156879	 0.000000
				CHANNELS 3 Zrotation Xrotation Yrotation
				JOINT LeftShoulder
				{
					OFFSET	 0.080501	 0.160143	 0.002496
					CHANNELS 3 Zrotation Xrotation Yrotation
					JOINT LeftArm
					{
						OFFSET	 0.000000	 0.164363	 0.000000
						CHANNELS 3 Zrotation Xrotation Yrotation
						JOINT LeftForeArm
						{
							OFFSET	 0.000000	 0.364576	 0.000000
							CHANNELS 3 Zrotation Xrotation Yrotation
							JOINT LeftHand
							{
								OFFSET	 0.000000	 0.360812	 0.000000
								CHANNELS 3 Zrotation Xrotation Yrotation
								JOINT LeftHandIndex1
								{
									OFFSET	 0.000000	 0.086006	 0.000000
									CHANNELS 3 Zrotation Xrotation Yrotation
									JOINT LeftHandIndex2
									{
										OFFSET	 0.000000	 0.047237	 0.000000
										CHANNELS 3 Zrotation Xrotation Yrotation
										JOINT LeftHandIndex3
										{
											OFFSET	-0.004284	 0.038165	 0.000551
											CHANNELS 3 Zrotation Xrotation Yrotation
											End Site
											{
												OFFSET	-0.004284	 0.038165	 0.000551
											}
										}
									}
								}
							}
						}
					}
				}
				JOINT Neck
				{
					OFFSET	 0.000000	 0.176489	 0.000000
					CHANNELS 3 Zrotation Xrotation Yrotation
					JOINT Head
					{
						OFFSET	 0.000000	 0.077941	 0.001747
						CHANNELS 3 Zrotation Xrotation Yrotation
						End Site
						{
							OFFSET	 0.000000	 0.077941	 0.001747
						}
					}
				}
				JOINT RightShoulder
				{
					OFFSET	-0.080363	 0.159706	-0.000306
					CHANNELS 3 Zrotation Xrotation Yrotation
					JOINT RightArm
					{
						OFFSET	 0.000000	 0.164196	 0.000000
						CHANNELS 3 Zrotation Xrotation Yrotation
						JOINT RightForeArm
						{
							OFFSET	 0.000000	 0.365611	 0.000000
							CHANNELS 3 Zrotation Xrotation Yrotation
							JOINT RightHand
							{
								OFFSET	 0.000000	 0.360648	 0.000000
								CHANNELS 3 Zrotation Xrotation Yrotation
								JOINT RightHandIndex1
								{
									OFFSET	 0.000000	 0.069977	 0.000000
									CHANNELS 3 Zrotation Xrotation Yrotation
									JOINT RightHandIndex2
									{
										OFFSET	 0.000000	 0.052305	 0.000000
										CHANNELS 3 Zrotation Xrotation Yrotation
										JOINT RightHandIndex3
										{
											OFFSET	 0.009002	 0.042196	 0.000782
											CHANNELS 3 Zrotation Xrotation Yrotation
											End Site
											{
												OFFSET	 0.009002	 0.042196	 0.000782
											}
										}
									}
								}
							}
						}
					}
				}
			}
		}
	}
}
MOTION
Frames:    8
Frame Time: 0.03333334
 0.436528	 1.273866	 0.406560	 0.564651	-2.354146	-177.253800	-177.688200	 6.736053	-19.606440	 3.443693	-12.740800	 5.971460	 5.213105	 69.550800	-1.488507	 1.292262	 28.425850	-2.713146	 175.424700	 7.109005	 21.204730	-1.883287	-9.702604	 0.877210	 0.174251	 65.387980	-5.748871	-1.288183	 28.361890	 2.710176	 1.069093	 6.221528	 8.285034	-2.424470	-5.663383	 3.929303	 2.674212	 6.571933	-12.860980	-117.459200	-0.779888	 89.958450	 12.475650	-4.333886	-6.413584	 4.955032	-0.402733	 34.723150	 31.376710	-8.048103	 9.322438	-6.580301	 5.266122	 0.000000	 0.000000	 0.000000	 0.000000	 0.000000	 0.000000	 0.000000	 4.795020	 27.116100	 1.713064	-4.225280	-17.000510	-3.234875	 116.287700	-0.440201	-90.569110	-9.973126	 1.198602	 20.926340	-4.865705	 0.115966	-57.199520	 15.459770	 4.001832	 24.155840	 15.208500	 5.323790	 0.000000	 0.000000	 0.000000	 0.000000	 0.000000	 0.000000	 0.000000
 0.436670	 1.275545	 0.408761	 0.590932	-2.887640	-177.206900	-177.764900	 6.762061	-19.533510	 3.071911	-11.404770	 6.008945	 5.729603	 68.682620	-1.649646	 1.292262	 28.425850	-2.713146	 175.599700	 6.818240	 21.204970	-1.489856	-7.703656	 0.768701	-0.666156	 64.252850	-5.318569	-1.288183	 28.361890	 2.710176	 0.980045	 6.537876	 9.165393	-2.537424	-7.473508	 3.912757	 2.867254	 8.478260	-13.015930	-117.959700	-0.932281	 89.889800	 12.974000	-6.283807	-4.585497	 4.945669	-0.382477	 33.409560	 33.344860	-5.343615	 9.958038	-6.580301	 5.266122	 0.000000	 0.000000	 0.000000	 0.000000	 0.000000	 0.000000	 0.000000	 5.147374	 28.211010	 1.419644	-4.282950	-17.480150	-3.211484	 117.077100	-0.657649	-90.492770	-10.622550	-0.704646	 21.246100	-4.860857	 0.141677	-56.264400	 13.670550	 5.964994	 20.837870	 15.208500	 5.323790	 0.000000	 0.000000	 0.000000	 0.000000	 0.000000	 0.000000	 0.000000
 0.436790	 1.277095	 0.410848	 0.602897	-3.319847	-177.169200	-177.856800	 6.623243	-19.469410	 2.675792	-9.966876	 6.028975	 6.116422	 67.775600	-1.701805	 1.292262	 28.425850	-2.713146	 175.807700	 6.179644	 21.192560	-1.005883	-5.218548	 0.688040	-1.377790	 62.869190	-5.039339	-1.288183	 28.361890	 2.710176	 0.891873	 6.830081	 9.858456	-2.619852	-8.988748	 3.888655	 3.025350	 10.101090	-13.113140	-118.369400	-1.056500	 89.832640	 13.375110	-8.168586	-3.050423	 4.932449	-0.366291	 32.390030	 35.020090	-2.955163	 10.073830	-6.580301	 5.266122	 0.000000	 0.000000	 0.000000	 0.000000	 0.000000	 0.000000	 0.000000	 5.443345	 29.106130	 1.171419	-4.329749	-17.859450	-3.182104	 117.723300	-0.834816	-90.428050	-11.169700	-2.530398	 21.643080	-4.854428	 0.162157	-55.586880	 12.081540	 7.879777	 18.087500	 15.208500	 5.323790	 0.000000	 0.000000	 0.000000	 0.000000	 0.000000	 0.000000	 0.000000
 0.436902	 1.278612	 0.412916	 0.607668	-3.705905	-177.135300	-177.964300	 6.311189	-19.400220	 2.216814	-8.284279	 6.040114	 6.444545	 66.745330	-1.686075	 1.292262	 28.425850	-2.713146	 175.803800	 6.619111	 21.194730	-0.969133	-5.028913	 0.571060	-1.833352	 62.651470	-4.755630	-1.288183	 28.361890	 2.710176	 0.799678	 7.093008	 10.454350	-2.676828	-10.343880	 3.857403	 3.162717	 11.612550	-13.165570	-118.739600	-1.168380	 89.780240	 13.728070	-10.043060	-1.645248	 4.914622	-0.351758	 31.507720	 36.566780	-0.699671	 9.906200	-6.580301	 5.266122	 0.000000	 0.000000	 0.000000	 0.000000	 0.000000	 0.000000	 0.000000	 5.716942	 29.914140	 0.940597	-4.371493	-18.187810	-3.144619	 118.307400	-0.994230	-90.367860	-11.670630	-4.339981	 22.087010	-4.843841	 0.180401	-55.036810	 10.561140	 9.815976	 15.584880	 15.208500	 5.323790	 0.000000	 0.000000	 0.000000	 0.000000	 0.000000	 0.000000	 0.000000
 0.437029	 1.280347	 0.415294	 0.607710	-4.115024	-177.099300	-178.114400	 5.607034	-19.324220	 1.529742	-5.738324	 6.045728	 6.730946	 65.247030	-1.525677	 1.292262	 28.425850	-2.713146	 175.775500	 7.191401	 21.202830	-0.967627	-5.021174	 0.443992	-2.290479	 62.506500	-4.466393	-1.288183	 28.361890	 2.710176	 0.688094	 7.376996	 11.046140	-2.719688	-11.803150	 3.807454	 3.305304	 13.317960	-13.163410	-119.137100	-1.288068	 89.723170	 14.094390	-12.186020	-0.138095	 4.891179	-0.336491	 30.598590	 38.210950	 1.810159	 9.481550	-6.580301	 5.266122	 0.000000	 0.000000	 0.000000	 0.000000	 0.000000	 0.000000	 0.000000	 6.017415	 30.780520	 0.685663	-4.415327	-18.518110	-3.087306	 118.934600	-1.164670	-90.301450	-12.211390	-6.404073	 22.625260	-4.829194	 0.199646	-54.505570	 8.829974	 12.080920	 12.883250	 15.208500	 5.323790	 0.000000	 0.000000	 0.000000	 0.000000	 0.000000	 0.000000	 0.000000
 0.437135	 1.281748	 0.417211	 0.604813	-4.426199	-177.072000	-178.186300	 5.658646	-19.267730	 1.318369	-4.949867	 6.094514	 7.002645	 64.695270	-1.561832	 1.292262	 28.425850	-2.713146	 175.750300	 7.633601	 21.208310	-0.966575	-5.015741	 0.347433	-2.636622	 62.389190	-4.251172	-1.288183	 28.361890	 2.710176	 0.592564	 7.601235	 11.448520	-2.738018	-12.952990	 3.748797	 3.411450	 14.731430	-13.093600	-119.443200	-1.379925	 89.678700	 14.368410	-13.896460	 0.998726	 4.871043	-0.324942	 29.923590	 39.393570	 3.820834	 9.013389	-6.580301	 5.266122	 0.000000	 0.000000	 0.000000	 0.000000	 0.000000	 0.000000	 0.000000	 6.253704	 31.446760	 0.484168	-4.447892	-18.748310	-3.024127	 119.417600	-1.295373	-90.249050	-12.631220	-8.049033	 23.054570	-4.815963	 0.214141	-54.134900	 7.392354	 13.935030	 10.787130	 15.208500	 5.323790	 0.000000	 0.000000	 0.000000	 0.000000	 0.000000	 0.000000	 0.000000
 0.437224	 1.282874	 0.418745	 0.601113	-4.665751	-177.051300	-178.220000	 6.005415	-19.224510	 1.316917	-4.944454	 6.147359	 7.243485	 64.578540	-1.676903	 1.292262	 28.425850	-2.713146	 175.729200	 7.976509	 21.212340	-0.965466	-5.010034	 0.273289	-2.901184	 62.294480	-4.089409	-1.288183	 28.361890	 2.710176	 0.510768	 7.785593	 11.707300	-2.739390	-13.887450	 3.681008	 3.489716	 15.934750	-12.968120	-119.680800	-1.451069	 89.643830	 14.580510	-15.244720	 1.844365	 4.852776	-0.316054	 29.413340	 40.180930	 5.464038	 8.585123	-6.580301	 5.266122	 0.000000	 0.000000	 0.000000	 0.000000	 0.000000	 0.000000	 0.000000	 6.440235	 31.963540	 0.324496	-4.471932	-18.903470	-2.955810	 119.792600	-1.396536	-90.207600	-12.965900	-9.345194	 23.372360	-4.802338	 0.225323	-53.868800	 6.161959	 15.427500	 9.137169	 15.208500	 5.323790	 0.000000	 0.000000	 0.000000	 0.000000	 0.000000	 0.000000	 0.000000
 0.437314	 1.283935	 0.420176	 0.596555	-4.883865	-177.032100	-178.251800	 6.323565	-19.183840	 1.315920	-4.940706	 6.195504	 7.461923	 64.470500	-1.780218	 1.292262	 28.425850	-2.713146	 175.708500	 8.291123	 21.215610	-0.964717	-5.006121	 0.206013	-3.141448	 62.206780	-3.943379	-1.288183	 28.361890	 2.710176	 0.426963	 7.968773	 11.870350	-2.723632	-14.806870	 3.586564	 3.554195	 17.179750	-12.752490	-119.898000	-1.515963	 89.611720	 14.780150	-16.482150	 2.557297	 4.835585	-0.307997	 28.957350	 40.678080	 7.092750	 8.161153	-6.580301	 5.266122	 0.000000	 0.000000	 0.000000	 0.000000	 0.000000	 0.000000	 0.000000	 6.613124	 32.435420	 0.176034	-4.492170	-19.014060	-2.866653	 120.135500	-1.488760	-90.169140	-13.285890	-10.535120	 23.622310	-4.790081	 0.235425	-53.641130	 4.867681	 16.822150	 7.583014	 15.208500	 5.323790	 0.000000	 0.000000	 0.000000	 0.000000	 0.000000	 0.000000	 0.000000
